<svg width="50" height="56" viewBox="0 0 50 56" fill="none" xmlns="http://www.w3.org/2000/svg">
<path d="M5.55556 56C4.02778 56 2.71991 55.4517 1.63194 54.355C0.543981 53.2583 0 51.94 0 50.4V11.2C0 9.66 0.543981 8.34167 1.63194 7.245C2.71991 6.14833 4.02778 5.6 5.55556 5.6H8.33333V0H13.8889V5.6H36.1111V0H41.6667V5.6H44.4444C45.9722 5.6 47.2801 6.14833 48.3681 7.245C49.456 8.34167 50 9.66 50 11.2V50.4C50 51.94 49.456 53.2583 48.3681 54.355C47.2801 55.4517 45.9722 56 44.4444 56H5.55556ZM5.55556 50.4H44.4444V22.4H5.55556V50.4ZM5.55556 16.8H44.4444V11.2H5.55556V16.8Z" fill="#5081CA"/>
</svg>
