<svg width="18" height="18" viewBox="0 0 18 18" fill="none" xmlns="http://www.w3.org/2000/svg">
<path d="M0 1.05C0 0.75 0.1 0.5 0.299999 0.3C0.5 0.1 0.75 0 1.05 0L5.1 0C5.31667 0 5.5125 0.075 5.6875 0.225C5.8625 0.375 5.98333 0.566667 6.05 0.8L6.75 4.25C6.78333 4.48333 6.7625 4.72083 6.6875 4.9625C6.6125 5.20417 6.5 5.4 6.35 5.55L4 7.9C4.36667 8.53333 4.77083 9.13333 5.2125 9.7C5.65417 10.2667 6.13333 10.8083 6.65 11.325C7.18333 11.875 7.7375 12.3792 8.3125 12.8375C8.8875 13.2958 9.48333 13.6917 10.1 14.025L12.55 11.6C12.6833 11.4667 12.8417 11.375 13.025 11.325C13.2083 11.275 13.4333 11.2667 13.7 11.3L17.2 11.95C17.4167 11.9833 17.6042 12.0917 17.7625 12.275C17.9208 12.4583 18 12.6667 18 12.9V16.95C18 17.25 17.9 17.5 17.7 17.7C17.5 17.9 17.25 18 16.95 18C14.8667 18 12.8083 17.5458 10.775 16.6375C8.74167 15.7292 6.89167 14.4417 5.225 12.775C3.55833 11.1083 2.27083 9.25833 1.3625 7.225C0.454166 5.19167 0 3.13333 0 1.05ZM12 14.95C12.65 15.2333 13.3083 15.45 13.975 15.6C14.6417 15.75 15.3167 15.8667 16 15.95L16 13.75L13.65 13.3L12 14.95ZM3.1 6L4.75 4.35L4.25 2L2.05 2C2.1 2.68333 2.21667 3.35833 2.4 4.025C2.58333 4.69167 2.81667 5.35 3.1 6Z" fill="#004F9F"/>
</svg>
