<svg width="60" height="60" viewBox="0 0 60 60" fill="none" xmlns="http://www.w3.org/2000/svg">
<path d="M30 0.0126953C34.1484 0.0126953 38.0469 0.799728 41.6953 2.37402C45.3438 3.94841 48.517 6.0854 51.2158 8.78418C53.9146 11.483 56.0516 14.6562 57.626 18.3047C59.2003 21.9531 59.9873 25.8516 59.9873 30C59.9873 34.1484 59.2003 38.0469 57.626 41.6953C56.0516 45.3438 53.9146 48.517 51.2158 51.2158C48.517 53.9146 45.3438 56.0516 41.6953 57.626C38.0469 59.2003 34.1484 59.9873 30 59.9873C25.8516 59.9873 21.9531 59.2003 18.3047 57.626C14.6562 56.0516 11.483 53.9146 8.78418 51.2158C6.0854 48.517 3.94841 45.3438 2.37402 41.6953C0.799728 38.0469 0.0126953 34.1484 0.0126953 30C0.0126956 25.8516 0.799728 21.9531 2.37402 18.3047C3.94841 14.6562 6.0854 11.483 8.78418 8.78418C11.483 6.0854 14.6562 3.94841 18.3047 2.37402C21.9531 0.799728 25.8516 0.0126956 30 0.0126953ZM46.3438 42.8828C45.5098 42.4195 44.4938 42.4263 43.667 42.9023L27.2949 52.3291C26.9296 52.5394 26.7952 52.913 26.8574 53.2432C26.9198 53.5733 27.1788 53.861 27.5986 53.9004C28.399 53.9754 29.1996 54.0127 30 54.0127C33.7519 54.0127 37.3036 53.1618 40.6553 51.4609C43.0718 50.2346 45.2024 48.67 47.0469 46.7676C48.1954 45.5829 47.784 43.683 46.3438 42.8828ZM32.2725 34.7617C30.868 33.9425 29.1315 33.9413 27.7266 34.7598L15.0283 42.1592C12.8705 43.4165 12.3205 46.3228 14.167 48.0088C16.3291 49.9829 19.5432 49.8326 22.082 48.3818L32.2383 42.5781C35.2544 40.8542 35.2733 36.5122 32.2725 34.7617ZM10.1738 20.0459C9.68015 19.8954 9.15227 19.9286 8.68066 20.1768C8.20908 20.425 7.79405 20.888 7.52539 21.5957C6.49992 24.297 5.9873 27.0986 5.9873 30C5.9873 31.6008 6.15046 33.1889 6.47559 34.7646C6.58779 35.3084 6.71919 35.8451 6.87012 36.374C7.32915 37.9824 9.20493 38.5711 10.6416 37.7197C11.4913 37.216 12.0125 36.3013 12.0127 35.3135V22.8965C12.0127 21.3823 11.1614 20.3472 10.1738 20.0459ZM39.7344 21.7324C36.7373 19.9985 32.9876 22.1607 32.9873 25.623C32.9873 27.2228 33.8376 28.7024 35.2197 29.5078L47.916 36.9062C50.1266 38.1943 53.0065 37.2744 53.5244 34.7646C54.1254 31.8514 52.4275 29.0761 49.8555 27.5879L39.7344 21.7324ZM25.583 7.77051C24.7174 7.04847 23.5501 6.76399 22.3457 7.22559C19.5574 8.29443 17.9873 11.1352 17.9873 14.1191V25.6152C17.9873 29.0979 21.7652 31.2675 24.7734 29.5127C26.1598 28.704 27.0127 27.2202 27.0127 25.6152V10.9404C27.0127 9.65181 26.4485 8.49241 25.583 7.77051ZM36.1299 6.75488C34.4884 6.31739 32.9873 7.64338 32.9873 9.33984C32.9875 10.341 33.5208 11.2661 34.3867 11.7686L41.0127 15.6133C43.0018 16.7672 44.9032 16.4631 45.8662 15.4971C46.3477 15.0139 46.5937 14.3649 46.498 13.6523C46.4023 12.9401 45.9653 12.1651 45.083 11.4277C42.4059 9.19043 39.4212 7.63264 36.1299 6.75488Z" fill="#FFCC00" stroke="#CCCCCC" stroke-width="0.025"/>
</svg>
