<svg width="55" height="40" viewBox="0 0 55 40" fill="none" xmlns="http://www.w3.org/2000/svg">
<path d="M0 40V30C0 28.5833 0.489583 27.3958 1.46875 26.4375C2.44792 25.4792 3.625 25 5 25H13.1875C14.0208 25 14.8125 25.2083 15.5625 25.625C16.3125 26.0417 16.9167 26.6042 17.375 27.3125C18.5833 28.9375 20.0729 30.2083 21.8438 31.125C23.6146 32.0417 25.5 32.5 27.5 32.5C29.5417 32.5 31.4479 32.0417 33.2188 31.125C34.9896 30.2083 36.4583 28.9375 37.625 27.3125C38.1667 26.6042 38.8021 26.0417 39.5312 25.625C40.2604 25.2083 41.0208 25 41.8125 25H50C51.4167 25 52.6042 25.4792 53.5625 26.4375C54.5208 27.3958 55 28.5833 55 30V40H37.5V34.3125C36.0417 35.3542 34.4688 36.1458 32.7812 36.6875C31.0938 37.2292 29.3333 37.5 27.5 37.5C25.7083 37.5 23.9583 37.2188 22.25 36.6562C20.5417 36.0938 18.9583 35.2917 17.5 34.25V40H0ZM27.5 30C25.9167 30 24.4167 29.6354 23 28.9062C21.5833 28.1771 20.3958 27.1667 19.4375 25.875C18.7292 24.8333 17.8438 24.0104 16.7812 23.4062C15.7188 22.8021 14.5625 22.5 13.3125 22.5C14.2292 20.9583 16.1667 19.7396 19.125 18.8438C22.0833 17.9479 24.875 17.5 27.5 17.5C30.125 17.5 32.9167 17.9479 35.875 18.8438C38.8333 19.7396 40.7708 20.9583 41.6875 22.5C40.4792 22.5 39.3333 22.8021 38.25 23.4062C37.1667 24.0104 36.2708 24.8333 35.5625 25.875C34.6458 27.2083 33.4792 28.2292 32.0625 28.9375C30.6458 29.6458 29.125 30 27.5 30ZM7.5 22.5C5.41667 22.5 3.64583 21.7708 2.1875 20.3125C0.729167 18.8542 0 17.0833 0 15C0 12.875 0.729167 11.0938 2.1875 9.65625C3.64583 8.21875 5.41667 7.5 7.5 7.5C9.625 7.5 11.4062 8.21875 12.8438 9.65625C14.2812 11.0938 15 12.875 15 15C15 17.0833 14.2812 18.8542 12.8438 20.3125C11.4062 21.7708 9.625 22.5 7.5 22.5ZM47.5 22.5C45.4167 22.5 43.6458 21.7708 42.1875 20.3125C40.7292 18.8542 40 17.0833 40 15C40 12.875 40.7292 11.0938 42.1875 9.65625C43.6458 8.21875 45.4167 7.5 47.5 7.5C49.625 7.5 51.4062 8.21875 52.8438 9.65625C54.2812 11.0938 55 12.875 55 15C55 17.0833 54.2812 18.8542 52.8438 20.3125C51.4062 21.7708 49.625 22.5 47.5 22.5ZM27.5 15C25.4167 15 23.6458 14.2708 22.1875 12.8125C20.7292 11.3542 20 9.58333 20 7.5C20 5.375 20.7292 3.59375 22.1875 2.15625C23.6458 0.71875 25.4167 0 27.5 0C29.625 0 31.4062 0.71875 32.8438 2.15625C34.2812 3.59375 35 5.375 35 7.5C35 9.58333 34.2812 11.3542 32.8438 12.8125C31.4062 14.2708 29.625 15 27.5 15Z" fill="#FFCC00"/>
</svg>
