<svg width="60" height="60" viewBox="0 0 60 60" fill="none" xmlns="http://www.w3.org/2000/svg">
<path d="M0 60L13.9211 19.0244L38.9791 45.3659L0 60ZM9.18793 50.3415L28.8167 43.0244L16.1485 29.7073L9.18793 50.3415ZM34.942 32.3415L32.0186 29.2683L47.6102 12.878C49.0951 11.3171 50.8817 10.5366 52.9698 10.5366C55.058 10.5366 56.8445 11.3171 58.3295 12.878L60 14.6341L57.0766 17.7073L55.406 15.9512C54.7564 15.2683 53.9443 14.9268 52.9698 14.9268C51.9954 14.9268 51.1833 15.2683 50.5336 15.9512L34.942 32.3415ZM23.8051 20.6341L20.8817 17.561L22.5522 15.8049C23.2019 15.122 23.5267 14.2927 23.5267 13.3171C23.5267 12.3415 23.2019 11.5122 22.5522 10.8293L20.7425 8.92683L23.6659 5.85366L25.4756 7.7561C26.9606 9.31707 27.703 11.1707 27.703 13.3171C27.703 15.4634 26.9606 17.3171 25.4756 18.8781L23.8051 20.6341ZM29.3735 26.4878L26.4501 23.4146L36.4733 12.878C37.123 12.1951 37.4478 11.3415 37.4478 10.3171C37.4478 9.29268 37.123 8.43903 36.4733 7.7561L32.0186 3.07317L34.942 0L39.3968 4.68293C40.8817 6.2439 41.6241 8.12195 41.6241 10.3171C41.6241 12.5122 40.8817 14.3902 39.3968 15.9512L29.3735 26.4878ZM40.5104 38.1951L37.587 35.122L42.0418 30.439C43.5267 28.8781 45.3132 28.0976 47.4014 28.0976C49.4896 28.0976 51.2761 28.8781 52.761 30.439L57.2158 35.122L54.2923 38.1951L49.8376 33.5122C49.1879 32.8293 48.3759 32.4878 47.4014 32.4878C46.4269 32.4878 45.6148 32.8293 44.9652 33.5122L40.5104 38.1951Z" fill="#FFCC00"/>
</svg>
