<svg width="40" height="44" viewBox="0 0 40 44" fill="none" xmlns="http://www.w3.org/2000/svg">
<path d="M4.44444 44C3.22222 44 2.17593 43.5692 1.30556 42.7075C0.435185 41.8458 0 40.81 0 39.6V8.8C0 7.59 0.435185 6.55417 1.30556 5.6925C2.17593 4.83083 3.22222 4.4 4.44444 4.4H6.66667V0H11.1111V4.4H28.8889V0H33.3333V4.4H35.5556C36.7778 4.4 37.8241 4.83083 38.6944 5.6925C39.5648 6.55417 40 7.59 40 8.8V39.6C40 40.81 39.5648 41.8458 38.6944 42.7075C37.8241 43.5692 36.7778 44 35.5556 44H4.44444ZM4.44444 39.6H35.5556V17.6H4.44444V39.6ZM4.44444 13.2H35.5556V8.8H4.44444V13.2Z" fill="#FFCC00"/>
</svg>
