<svg width="40" height="40" viewBox="0 0 40 40" fill="none" xmlns="http://www.w3.org/2000/svg">
<path d="M20 40C17.2222 40 14.6204 39.4722 12.1944 38.4167C9.76852 37.3611 7.65741 35.9352 5.86111 34.1389C4.06482 32.3426 2.63889 30.2315 1.58333 27.8056C0.527778 25.3796 0 22.7778 0 20C0 17.2222 0.527778 14.6204 1.58333 12.1944C2.63889 9.76852 4.06482 7.65741 5.86111 5.86111C7.65741 4.06482 9.76852 2.63889 12.1944 1.58333C14.6204 0.527778 17.2222 0 20 0C23.037 0 25.9167 0.648148 28.6389 1.94444C31.3611 3.24074 33.6667 5.07407 35.5556 7.44444V2.22222H40V15.5556H26.6667V11.1111H32.7778C31.2593 9.03704 29.3889 7.40741 27.1667 6.22222C24.9444 5.03704 22.5556 4.44444 20 4.44444C15.6667 4.44444 11.9907 5.9537 8.97222 8.97222C5.9537 11.9907 4.44444 15.6667 4.44444 20C4.44444 24.3333 5.9537 28.0093 8.97222 31.0278C11.9907 34.0463 15.6667 35.5556 20 35.5556C23.8889 35.5556 27.287 34.2963 30.1944 31.7778C33.1019 29.2593 34.8148 26.0741 35.3333 22.2222H39.8889C39.3333 27.2963 37.1574 31.5278 33.3611 34.9167C29.5648 38.3056 25.1111 40 20 40ZM26.2222 29.3333L17.7778 20.8889V8.88889H22.2222V19.1111L29.3333 26.2222L26.2222 29.3333Z" fill="#FFCC00"/>
</svg>
