<svg width="240" height="90" viewBox="0 0 240 90" fill="none" xmlns="http://www.w3.org/2000/svg">
<path d="M106.784 52.4341C103.742 52.4341 100.804 52.0882 97.9717 51.4055C95.1372 50.7137 92.8045 49.8216 90.9736 48.7292L94.9128 39.863C96.641 40.8552 98.5679 41.6563 100.693 42.257C102.818 42.8578 104.883 43.1583 106.887 43.1583C108.062 43.1583 108.987 43.0855 109.661 42.9307C110.334 42.776 110.827 42.5483 111.138 42.257C111.448 41.9658 111.604 41.6108 111.604 41.2011C111.604 40.5548 111.241 40.036 110.515 39.6536C109.79 39.2804 108.831 38.9618 107.638 38.7069C106.447 38.4429 105.142 38.1699 103.725 37.8786C102.307 37.5873 100.882 37.2049 99.449 36.7225C98.0148 36.24 96.7014 35.6028 95.509 34.8109C94.3175 34.028 93.3577 32.9812 92.6323 31.6976C91.907 30.405 91.5438 28.8029 91.5438 26.8822C91.5438 24.6519 92.1744 22.6129 93.4355 20.7741C94.6966 18.9353 96.5805 17.4697 99.0863 16.3683C101.591 15.2668 104.71 14.7207 108.443 14.7207C110.895 14.7207 113.315 14.9755 115.699 15.4944C118.084 16.0133 120.226 16.7961 122.127 17.8612L118.446 26.6728C116.649 25.7807 114.913 25.1071 113.237 24.6611C111.561 24.215 109.927 23.9966 108.338 23.9966C107.163 23.9966 106.23 24.0967 105.539 24.306C104.848 24.5063 104.355 24.7885 104.062 25.1253C103.768 25.4712 103.622 25.8535 103.622 26.2632C103.622 26.8822 103.984 27.3738 104.71 27.7288C105.436 28.0929 106.395 28.3933 107.587 28.6299C108.78 28.8757 110.092 29.1306 111.526 29.4037C112.96 29.6768 114.385 30.0591 115.803 30.5416C117.219 31.0149 118.524 31.6521 119.717 32.4441C120.909 33.2361 121.868 34.2647 122.593 35.5391C123.319 36.8044 123.682 38.3883 123.682 40.2726C123.682 42.4755 123.051 44.4964 121.79 46.3261C120.528 48.1649 118.654 49.6487 116.166 50.7592C113.678 51.8789 110.55 52.4341 106.784 52.4341Z" fill="#5081CA"/>
<path d="M139.543 38.8849L134.101 33.3716H144.001C145.694 33.3716 146.947 32.9986 147.759 32.2435C148.571 31.4883 148.977 30.4603 148.977 29.1502C148.977 27.8492 148.571 26.812 147.759 26.0569C146.947 25.3018 145.694 24.9287 144.001 24.9287H134.101L139.543 19.4155V38.8849ZM127.311 51.6128V15.5489H144.779C148.166 15.5489 151.094 16.0947 153.565 17.1956C156.035 18.2964 157.945 19.8704 159.292 21.9083C160.641 23.9553 161.314 26.3662 161.314 29.1502C161.314 31.9341 160.641 34.3359 159.292 36.3648C157.945 38.3936 156.035 39.9584 153.565 41.0774C151.094 42.1965 148.166 42.7515 144.779 42.7515H134.101L139.543 37.5475V51.6128H127.311Z" fill="#5081CA"/>
<path d="M184.849 42.5939C185.989 42.5939 187.051 42.3845 188.036 41.9749C189.021 41.5653 189.884 40.9736 190.628 40.1998C191.37 39.4261 191.95 38.4793 192.364 37.3688C192.779 36.2491 192.986 34.9838 192.986 33.582C192.986 32.171 192.779 30.9057 192.364 29.7951C191.95 28.6754 191.37 27.7288 190.628 26.955C189.884 26.1813 189.021 25.5896 188.036 25.18C187.051 24.7703 185.989 24.5609 184.849 24.5609C183.707 24.5609 182.645 24.7703 181.661 25.18C180.675 25.5896 179.811 26.1813 179.069 26.955C178.325 27.7288 177.747 28.6754 177.332 29.7951C176.917 30.9057 176.71 32.171 176.71 33.582C176.71 34.9838 176.917 36.2491 177.332 37.3688C177.747 38.4793 178.325 39.4261 179.069 40.1998C179.811 40.9736 180.675 41.5653 181.661 41.9749C182.645 42.3845 183.707 42.5939 184.849 42.5939ZM184.9 52.4341C181.928 52.4341 179.189 51.9699 176.684 51.0414C174.178 50.1129 172.01 48.8021 170.179 47.0998C168.347 45.3976 166.921 43.404 165.903 41.101C164.882 38.7979 164.373 36.2946 164.373 33.582C164.373 30.8329 164.882 28.3114 165.903 26.0265C166.921 23.7417 168.347 21.7572 170.179 20.055C172.01 18.3527 174.178 17.0419 176.684 16.1134C179.189 15.1849 181.911 14.7207 184.849 14.7207C187.82 14.7207 190.55 15.1849 193.038 16.1134C195.526 17.0419 197.686 18.3527 199.518 20.055C201.349 21.7572 202.774 23.7417 203.794 26.0265C204.813 28.3114 205.323 30.8329 205.323 33.582C205.323 36.2946 204.813 38.7979 203.794 41.101C202.774 43.404 201.349 45.3976 199.518 47.0998C197.686 48.8021 195.526 50.1129 193.038 51.0414C190.55 51.9699 187.837 52.4341 184.9 52.4341Z" fill="#5081CA"/>
<path d="M217.141 51.6128V24.9742H206.515V15.5489H240V24.9742H229.374V51.6128H217.141Z" fill="#5081CA"/>
<path d="M94.7241 72.6096H98.1514C98.9139 72.6096 99.491 72.4862 99.8838 72.2395C100.276 71.9928 100.472 71.605 100.472 71.0587C100.472 70.53 100.276 70.1423 99.8838 69.878C99.491 69.6224 98.9139 69.4902 98.1514 69.4902H94.5069V67.3667H97.6435C98.3571 67.3667 98.9041 67.2433 99.2853 66.9965C99.6666 66.7498 99.8563 66.3797 99.8563 65.8687C99.8563 65.3752 99.6666 65.0051 99.2853 64.7583C98.9041 64.5204 98.3571 64.3971 97.6435 64.3971H94.7241V72.6096ZM91.8047 74.8125V62.1942H98.0069C99.6027 62.1942 100.802 62.4938 101.606 63.093C102.41 63.6922 102.813 64.4852 102.813 65.4721C102.813 66.133 102.649 66.7057 102.323 67.1992C101.996 67.6838 101.549 68.0627 100.98 68.3271C100.412 68.5914 99.7596 68.7236 99.022 68.7236L99.3669 67.9835C100.165 67.9835 100.872 68.1068 101.488 68.3711C102.105 68.6267 102.586 69.0056 102.931 69.5167C103.275 70.0189 103.447 70.6357 103.447 71.3671C103.447 72.4509 103.018 73.2969 102.16 73.9049C101.3 74.5041 100.038 74.8125 98.3695 74.8125H91.8047Z" fill="#F8A41B"/>
<path d="M108.381 67.2785H114.492V69.5519H108.381V67.2785ZM108.598 72.4686H115.507V74.8125H105.679V62.1942H115.272V64.5381H108.598V72.4686Z" fill="#F8A41B"/>
<path d="M119.008 72.1073L119.788 69.8868H126.316L127.114 72.1073H119.008ZM116.179 74.8125L121.837 62.1942H124.738L130.415 74.8125H127.331L122.689 63.6745H123.85L119.189 74.8125H116.179Z" fill="#F8A41B"/>
<path d="M137.632 75.0287C136.653 75.0287 135.743 74.8701 134.903 74.5529C134.063 74.2268 133.335 73.7773 132.717 73.1868C132.101 72.5964 131.621 71.909 131.276 71.1158C130.932 70.3226 130.759 69.4501 130.759 68.4983C130.759 67.5553 130.932 66.6829 131.276 65.8897C131.621 65.0965 132.104 64.4003 132.727 63.8186C133.35 63.2282 134.078 62.7699 134.912 62.4526C135.746 62.1353 136.659 61.9767 137.65 61.9767C138.75 61.9767 139.745 62.1618 140.634 62.5407C141.522 62.9197 142.269 63.4749 142.873 64.2152L140.988 65.9425C140.552 65.449 140.068 65.0789 139.536 64.8321C139.004 64.5854 138.424 64.462 137.795 64.462C137.203 64.462 136.659 64.5589 136.163 64.7528C135.667 64.9467 135.238 65.2199 134.876 65.5812C134.513 65.9426 134.232 66.3656 134.032 66.8591C133.833 67.3526 133.734 67.899 133.734 68.4983C133.734 69.1064 133.833 69.6528 134.032 70.1375C134.232 70.631 134.513 71.0629 134.876 71.4242C135.238 71.7856 135.667 72.0587 136.163 72.2526C136.659 72.4465 137.203 72.5435 137.795 72.5435C138.424 72.5435 139.004 72.4201 139.536 72.1733C140.068 71.9266 140.552 71.5476 140.988 71.0453L142.873 72.7726C142.269 73.5041 141.522 74.0681 140.634 74.4471C139.745 74.8349 138.744 75.0287 137.632 75.0287Z" fill="#F8A41B"/>
<path d="M153.552 62.1942H156.49V74.8125H153.552V62.1942ZM153.77 69.6401H147.567V67.1728H153.77V69.6401ZM147.785 74.8125H144.847V62.1942H147.785V74.8125Z" fill="#F8A41B"/>
<path d="M170.71 75.0287C169.73 75.0287 168.82 74.8701 167.98 74.5529C167.14 74.2268 166.412 73.7773 165.796 73.1868C165.178 72.5964 164.698 71.909 164.353 71.1158C164.009 70.3226 163.837 69.4501 163.837 68.4983C163.837 67.5553 164.009 66.6829 164.353 65.8897C164.698 65.0965 165.181 64.4003 165.804 63.8186C166.427 63.2282 167.155 62.7699 167.989 62.4526C168.824 62.1353 169.736 61.9767 170.728 61.9767C171.828 61.9767 172.823 62.1618 173.711 62.5407C174.599 62.9197 175.346 63.4749 175.951 64.2152L174.065 65.9425C173.629 65.449 173.145 65.0789 172.614 64.8321C172.082 64.5854 171.501 64.462 170.873 64.462C170.28 64.462 169.736 64.5589 169.24 64.7528C168.745 64.9467 168.316 65.2199 167.953 65.5812C167.59 65.9426 167.309 66.3656 167.11 66.8591C166.91 67.3526 166.811 67.899 166.811 68.4983C166.811 69.1064 166.91 69.6528 167.11 70.1375C167.309 70.631 167.59 71.0629 167.953 71.4242C168.316 71.7856 168.745 72.0587 169.24 72.2526C169.736 72.4465 170.28 72.5435 170.873 72.5435C171.501 72.5435 172.082 72.4201 172.614 72.1733C173.145 71.9266 173.629 71.5476 174.065 71.0453L175.951 72.7726C175.346 73.5041 174.599 74.0681 173.711 74.4471C172.823 74.8349 171.822 75.0287 170.71 75.0287Z" fill="#F8A41B"/>
<path d="M178.833 72.1073L179.613 69.8868H186.142L186.939 72.1073H178.833ZM176.004 74.8125L181.662 62.1942H184.563L190.24 74.8125H187.157L182.514 63.6745H183.675L179.015 74.8125H176.004Z" fill="#F8A41B"/>
<path d="M191.564 74.8125V62.1942H193.994L199.399 71.1028H198.111L203.425 62.1942H205.837L205.872 74.8125H203.116L203.098 66.3974H203.605L199.362 73.4819H198.039L193.705 66.3974H194.321V74.8125H191.564Z" fill="#F8A41B"/>
<path d="M211.821 70.345L210.515 68.9528H214.214C215.121 68.9528 215.798 68.7589 216.246 68.38C216.692 67.9923 216.917 67.4548 216.917 66.7763C216.917 66.0713 216.692 65.5338 216.246 65.1461C215.798 64.7672 215.121 64.5733 214.214 64.5733H210.515L211.821 63.1899V70.345ZM208.883 74.8125V62.1942H214.378C215.513 62.1942 216.493 62.3792 217.316 62.7405C218.137 63.1106 218.772 63.6393 219.22 64.3178C219.667 65.0051 219.89 65.8246 219.89 66.7763C219.89 67.7103 219.667 68.5209 219.22 69.2082C218.772 69.8867 218.137 70.4155 217.316 70.7856C216.493 71.1469 215.513 71.3319 214.378 71.3319H210.515L211.821 70.0189V74.8125H208.883Z" fill="#F8A41B"/>
<path d="M226.329 75.0287C225.312 75.0287 224.34 74.8877 223.409 74.6234C222.478 74.3501 221.728 73.9976 221.16 73.5658L222.158 71.3713C222.701 71.7503 223.346 72.0676 224.089 72.3143C224.832 72.5611 225.585 72.6845 226.346 72.6845C226.927 72.6845 227.395 72.6228 227.753 72.5082C228.108 72.4025 228.372 72.235 228.541 72.0323C228.71 71.8296 228.794 71.5916 228.794 71.3272C228.794 70.9924 228.661 70.728 228.395 70.5253C228.13 70.3314 227.779 70.1728 227.344 70.0406C226.908 69.9172 226.428 69.7939 225.902 69.6793C225.376 69.5647 224.851 69.4236 224.324 69.2562C223.799 69.0887 223.318 68.8772 222.883 68.6129C222.448 68.3485 222.094 67.996 221.822 67.5642C221.55 67.1323 221.414 66.577 221.414 65.9072C221.414 65.1846 221.61 64.5236 222.003 63.9332C222.396 63.3339 222.988 62.8668 223.78 62.5054C224.572 62.1529 225.567 61.9767 226.764 61.9767C227.562 61.9767 228.348 62.0736 229.122 62.2587C229.895 62.4438 230.578 62.7258 231.171 63.0959L230.264 65.308C229.671 64.9731 229.079 64.7263 228.487 64.5589C227.894 64.4002 227.314 64.3209 226.745 64.3209C226.177 64.3209 225.712 64.3826 225.349 64.5148C224.986 64.647 224.726 64.8233 224.569 65.0348C224.412 65.2463 224.334 65.4843 224.334 65.7575C224.334 66.0836 224.467 66.3479 224.733 66.5418C224.999 66.7445 225.349 66.9031 225.784 67.0265C226.22 67.1411 226.7 67.2645 227.226 67.3879C227.753 67.5025 228.278 67.6434 228.804 67.802C229.33 67.9519 229.811 68.1634 230.246 68.4278C230.68 68.6922 231.034 69.0447 231.306 69.4765C231.579 69.9084 231.714 70.4548 231.714 71.1158C231.714 71.8208 231.515 72.473 231.116 73.0634C230.717 73.6539 230.122 74.121 229.33 74.4824C228.537 74.8437 227.537 75.0287 226.329 75.0287Z" fill="#F8A41B"/>
<path d="M43.5862 77.7353C43.6075 77.8155 43.6222 77.8957 43.6222 77.9759C43.6222 78.0204 43.6197 78.0649 43.6142 78.1006L42.7734 87.4117L62.601 83.7051C62.5942 83.6694 62.5876 83.6338 62.5849 83.5981L59.9203 46.1489L53.3996 46.8528L48.4201 63.7286C49.43 65.2165 50.0206 66.9986 50.0206 68.9231C50.0206 73.0396 47.3208 76.5235 43.5862 77.7353Z" fill="#B8BAB9"/>
<path d="M83.3734 90L74.9208 50.3055L61.2266 46.475L63.8469 83.3012L83.3734 90Z" fill="#818485"/>
<path d="M41.5158 87.1544L42.3086 78.3723C41.7721 78.4616 41.2329 78.5062 40.7009 78.5062C35.3846 78.5062 31.0596 74.2043 31.0596 68.9207C31.0596 65.1276 33.2974 61.7093 36.7737 60.1742L40.7536 46.6796L30.6911 43.7255L21.5029 79.5504L41.5158 87.1544Z" fill="#818485"/>
<path d="M20.1929 79.5046L29.4346 43.4772L15.875 45.0572L0 83.8518L20.1937 79.9688C20.1575 79.8171 20.1529 79.6653 20.1929 79.5046Z" fill="#B8BAB9"/>
<path d="M48.97 40.9126C47.5419 40.4919 46.1897 39.9458 44.9197 39.2833L37.2173 65.397C36.8496 66.6414 36.7528 67.9484 36.9326 69.2375L37.4375 72.8453C37.7016 74.7342 40.0805 75.4235 41.3266 73.9822L43.712 71.216C44.5624 70.2312 45.1926 69.0764 45.5605 67.823L53.2624 41.7183C51.8345 41.593 50.398 41.3244 48.97 40.9126Z" fill="#5081CA"/>
<path d="M68.1269 27.383C66.0934 26.7119 64.1473 25.8294 62.2686 24.717C63.478 22.2072 64.3437 19.5872 64.8215 16.8568C65.2983 14.1172 65.3655 11.3776 64.9732 8.55533C70.2525 13.014 71.9504 20.957 68.1269 27.383ZM64.6793 31.3913C64.3019 31.6855 63.8961 31.952 63.5156 32.2554C63.3345 32.3933 63.1684 32.4025 62.9529 32.3382C60.4426 31.5751 58.117 30.4352 55.962 28.9459C53.4721 27.2267 51.3118 25.1674 49.4524 22.7864C49.402 22.7221 49.3553 22.6485 49.2863 22.5566C49.4858 22.4738 49.6685 22.3911 49.8535 22.3176C51.343 21.7292 52.8729 21.2695 54.4604 21.0213C54.61 20.9937 54.732 20.9845 54.8518 21.1316C57.2756 24.1654 60.3633 26.3442 63.8715 27.9714C64.7893 28.3943 65.7406 28.7436 66.6764 29.1297C66.7275 29.1481 66.777 29.1757 66.8649 29.2125C66.2044 30.0307 65.4805 30.7478 64.6793 31.3913ZM42.144 27.2175C43.6876 25.7466 45.4094 24.5147 47.3068 23.5035C50.7665 28.1276 55.1315 31.5843 60.5326 33.7631C53.9547 36.3924 45.8683 33.8183 42.144 27.2175ZM41.1481 25.2319C40.9486 24.5699 40.7224 23.9908 40.6041 23.3932C40.4227 22.4739 40.3168 21.5361 40.175 20.5984C40.1369 20.3502 40.2267 20.1755 40.4204 20.01C44.0828 16.7464 48.3186 14.6596 53.1622 13.8046C54.0024 13.6575 54.8528 13.5656 55.7329 13.4369C55.7285 13.5656 55.7313 13.6484 55.7224 13.7219C55.5293 15.4135 55.1276 17.0591 54.5095 18.6403C54.4424 18.815 54.3456 18.8793 54.1714 18.9069C49.3409 19.7159 45.1099 21.7844 41.4182 24.9652C41.3421 25.0296 41.2747 25.1031 41.1481 25.2319ZM41.026 14.8618C43.0252 9.29075 48.0216 5.4664 53.9458 4.95158C54.2328 4.924 54.522 4.924 54.8096 4.90561C54.972 4.89642 55.0518 4.94237 55.0975 5.11704C55.5485 6.81778 55.8049 8.53698 55.8643 10.2929C55.8754 10.6238 55.8764 10.9547 55.8828 11.3225C53.0487 11.5431 50.331 12.1223 47.7066 13.1244C45.0809 14.1172 42.6652 15.487 40.4491 17.2061C40.4198 17.1969 40.3903 17.1785 40.361 17.1601C40.5805 16.3971 40.7568 15.6157 41.026 14.8618ZM56.506 19.3758C57.4995 16.8752 57.9795 14.2735 58.029 11.5983C58.0678 9.5022 57.8418 7.44297 57.3637 5.40208C57.3449 5.31934 57.3279 5.24574 57.3132 5.163C57.3104 5.14462 57.3213 5.1263 57.3391 5.05276C57.9159 5.18146 58.5002 5.28255 59.0732 5.42964C60.1754 5.71463 61.229 6.12831 62.2374 6.65232C62.3998 6.74425 62.486 6.84538 62.5253 7.02005C63.2235 10.2101 63.2709 13.4094 62.6883 16.6178C62.2697 18.9253 61.5638 21.1408 60.5829 23.2645C60.5485 23.338 60.5114 23.4115 60.4598 23.5219C59.4327 22.7772 58.5011 21.9866 57.6542 21.0949C57.2893 20.718 56.9575 20.3042 56.5977 19.9181C56.4389 19.7434 56.4178 19.5964 56.506 19.3758ZM60.7989 0.805475C50.2204 -2.27425 39.1306 3.74725 36.0292 14.2643C32.9277 24.7813 38.9893 35.804 49.5681 38.8838C60.1467 41.9635 71.2365 35.9419 74.3379 25.4249C77.4392 14.9078 71.3778 3.8852 60.7989 0.805475Z" fill="#F8A41B"/>
</svg>
