<svg width="55" height="50" viewBox="0 0 40 50" fill="none" xmlns="http://www.w3.org/2000/svg">
<path d="M20 25C21.375 25 22.5521 24.5104 23.5312 23.5312C24.5104 22.5521 25 21.375 25 20C25 18.625 24.5104 17.4479 23.5312 16.4687C22.5521 15.4896 21.375 15 20 15C18.625 15 17.4479 15.4896 16.4688 16.4687C15.4896 17.4479 15 18.625 15 20C15 21.375 15.4896 22.5521 16.4688 23.5312C17.4479 24.5104 18.625 25 20 25ZM20 43.375C25.0833 38.7083 28.8542 34.4687 31.3125 30.6562C33.7708 26.8437 35 23.4583 35 20.5C35 15.9583 33.5521 12.2396 30.6562 9.34375C27.7604 6.44792 24.2083 5 20 5C15.7917 5 12.2396 6.44792 9.34375 9.34375C6.44792 12.2396 5 15.9583 5 20.5C5 23.4583 6.22917 26.8437 8.6875 30.6562C11.1458 34.4687 14.9167 38.7083 20 43.375ZM20 50C13.2917 44.2917 8.28125 38.9896 4.96875 34.0937C1.65625 29.1979 0 24.6667 0 20.5C0 14.25 2.01042 9.27083 6.03125 5.5625C10.0521 1.85417 14.7083 0 20 0C25.2917 0 29.9479 1.85417 33.9688 5.5625C37.9896 9.27083 40 14.25 40 20.5C40 24.6667 38.3438 29.1979 35.0312 34.0937C31.7188 38.9896 26.7083 44.2917 20 50Z" fill="#5081CA"/>
</svg>
