<svg width="55" height="50" viewBox="0 0 55 40" fill="none" xmlns="http://www.w3.org/2000/svg">
<path d="M32.5 22.5C30.4167 22.5 28.6458 21.7708 27.1875 20.3125C25.7292 18.8542 25 17.0833 25 15C25 12.9167 25.7292 11.1458 27.1875 9.6875C28.6458 8.22917 30.4167 7.5 32.5 7.5C34.5833 7.5 36.3542 8.22917 37.8125 9.6875C39.2708 11.1458 40 12.9167 40 15C40 17.0833 39.2708 18.8542 37.8125 20.3125C36.3542 21.7708 34.5833 22.5 32.5 22.5ZM15 30C13.625 30 12.4479 29.5104 11.4688 28.5312C10.4896 27.5521 10 26.375 10 25V5C10 3.625 10.4896 2.44792 11.4688 1.46875C12.4479 0.489583 13.625 0 15 0H50C51.375 0 52.5521 0.489583 53.5312 1.46875C54.5104 2.44792 55 3.625 55 5V25C55 26.375 54.5104 27.5521 53.5312 28.5312C52.5521 29.5104 51.375 30 50 30H15ZM20 25H45C45 23.625 45.4896 22.4479 46.4688 21.4688C47.4479 20.4896 48.625 20 50 20V10C48.625 10 47.4479 9.51042 46.4688 8.53125C45.4896 7.55208 45 6.375 45 5H20C20 6.375 19.5104 7.55208 18.5312 8.53125C17.5521 9.51042 16.375 10 15 10V20C16.375 20 17.5521 20.4896 18.5312 21.4688C19.5104 22.4479 20 23.625 20 25ZM47.5 40H5C3.625 40 2.44792 39.5104 1.46875 38.5312C0.489583 37.5521 0 36.375 0 35V7.5H5V35H47.5V40Z" fill="#5081CA"/>
</svg>
