<svg width="39" height="39" viewBox="0 0 39 39" fill="none" xmlns="http://www.w3.org/2000/svg">
<path d="M28.2227 23.1968C27.7414 22.9565 25.3737 21.7984 24.9329 21.6371C24.4905 21.4775 24.1696 21.3984 23.8471 21.8791C23.5278 22.3581 22.6041 23.4371 22.3237 23.7565C22.0434 24.0774 21.7614 24.1162 21.2801 23.8774C20.7987 23.6355 19.2462 23.1307 17.4068 21.4984C15.9758 20.2275 15.0084 18.6581 14.728 18.1775C14.4476 17.6984 14.6988 17.4387 14.9387 17.2C15.1558 16.9855 15.4216 16.6404 15.6615 16.3613C15.9029 16.0807 15.9823 15.8807 16.1444 15.5597C16.3048 15.2404 16.2254 14.9613 16.1039 14.721C15.9823 14.4807 15.0197 12.121 14.6194 11.1613C14.2272 10.2275 13.8302 10.3549 13.5352 10.3388C13.2549 10.3259 12.934 10.3226 12.6115 10.3226C12.2906 10.3226 11.7688 10.442 11.328 10.9226C10.8872 11.4017 9.64255 12.5613 9.64255 14.921C9.64255 17.2791 11.3685 19.5581 11.6083 19.8791C11.8498 20.1984 15.0051 25.0403 19.8361 27.1161C20.9851 27.6097 21.8813 27.9049 22.5814 28.1242C23.7353 28.4903 24.7854 28.4387 25.6135 28.3145C26.5389 28.1774 28.4626 27.1549 28.8645 26.0355C29.2664 24.9162 29.2664 23.9565 29.1448 23.7565C29.0249 23.5565 28.7056 23.4371 28.2227 23.1968ZM19.4358 35.1371H19.4293C16.5605 35.1373 13.7444 34.3697 11.2761 32.9145L10.6911 32.5694L4.62843 34.1532L6.24578 28.2694L5.86494 27.6661C4.26126 25.1246 3.41288 22.1834 3.41784 19.1823C3.41946 10.392 10.6068 3.24038 19.4423 3.24038C23.7207 3.24038 27.743 4.90167 30.767 7.91457C32.2591 9.39298 33.4417 11.1512 34.2465 13.0875C35.0512 15.0238 35.4621 17.0998 35.4554 19.1952C35.4506 27.9855 28.2648 35.1371 19.4358 35.1371ZM33.0699 5.62586C31.2843 3.83703 29.1598 2.41867 26.8194 1.45297C24.479 0.487265 21.9694 -0.00657458 19.4358 6.60927e-05C8.81281 6.60927e-05 0.166922 8.60489 0.16206 19.1807C0.16206 22.5613 1.04853 25.8613 2.73557 28.7694L0 38.7097L10.2179 36.0419C13.0435 37.5741 16.2099 38.377 19.4277 38.3774H19.4358C30.0572 38.3774 38.7047 29.7726 38.7096 19.1952C38.7174 16.6747 38.223 14.1776 37.255 11.8485C36.287 9.51935 34.8645 7.40436 33.0699 5.62586Z" fill="#5081CA"/>
</svg>
