<svg width="26" height="28" viewBox="0 0 26 28" fill="none" xmlns="http://www.w3.org/2000/svg">
<path d="M13.4788 24.1847C13.4854 24.2095 13.49 24.2348 13.49 24.261C13.49 24.2748 13.4891 24.2876 13.4875 24.3L13.2275 27.1966L19.359 26.0435C19.3569 26.0326 19.3549 26.0211 19.3541 26.0097L18.5301 14.3581L16.5135 14.5763L14.9737 19.8286C15.2861 20.2894 15.4686 20.845 15.4686 21.4439C15.4686 22.7243 14.6337 23.8088 13.4788 24.1847Z" fill="#B8BAB9"/>
<path d="M25.7824 28L23.1685 15.6512L18.9336 14.4591L19.7439 25.9166L25.7824 28Z" fill="#818485"/>
<path d="M12.8378 27.1151L13.0829 24.3828C12.9171 24.4112 12.7503 24.4256 12.5858 24.4256C10.9418 24.4256 9.60432 23.0876 9.60432 21.4441C9.60432 20.2644 10.2963 19.2007 11.3714 18.721L12.6021 14.5228L9.49039 13.6039L6.64893 24.7494L12.8378 27.1151Z" fill="#818485"/>
<path d="M6.24454 24.7369L9.10252 13.527L4.90927 14.0191L0 26.0887L6.24473 24.88C6.23361 24.8342 6.23217 24.7851 6.24454 24.7369Z" fill="#B8BAB9"/>
<path d="M15.1437 12.7278C14.7021 12.5986 14.2839 12.4277 13.8912 12.2221L11.5093 20.3464C11.3956 20.7342 11.3656 21.142 11.4213 21.5425L11.5774 22.6651C11.6591 23.2512 12.3947 23.4676 12.7801 23.0177L13.5176 22.1569C13.7807 21.85 13.9756 21.4906 14.0893 21.1028L16.4711 12.9785C16.0296 12.9393 15.5853 12.8576 15.1437 12.7278Z" fill="#5081CA"/>
<path d="M21.068 8.51855C20.4392 8.30919 19.8373 8.03724 19.2564 7.68963C19.6304 6.9085 19.8981 6.09438 20.0458 5.24327C20.1934 4.3933 20.2141 3.53935 20.0928 2.66321C21.7254 4.04796 22.2505 6.51936 21.068 8.51855ZM20.0019 9.76563C19.8852 9.85894 19.7597 9.942 19.6421 10.0342C19.5861 10.0785 19.5347 10.0825 19.468 10.062C18.6917 9.82366 17.9725 9.46865 17.3061 9.00612C16.5361 8.47133 15.8681 7.82902 15.2931 7.08942C15.2774 7.06894 15.263 7.04789 15.2417 7.01831C15.3034 6.99214 15.3599 6.9671 15.4171 6.94435C15.8777 6.75945 16.3508 6.61835 16.8417 6.54041C16.888 6.53301 16.9258 6.52847 16.9628 6.57512C17.7123 7.51953 18.6671 8.19711 19.752 8.70175C20.0359 8.83317 20.3301 8.94297 20.6195 9.06245C20.6352 9.06927 20.6506 9.07723 20.6777 9.08918C20.4734 9.34463 20.2496 9.56708 20.0019 9.76563ZM13.033 8.46792C13.5103 8.01051 14.0428 7.62762 14.6296 7.31358C15.6995 8.75238 17.0493 9.82594 18.7196 10.5035C16.6854 11.3216 14.1847 10.5223 13.033 8.46792ZM12.725 7.85121C12.6633 7.64526 12.5934 7.46548 12.5569 7.2783C12.5007 6.99157 12.4679 6.69971 12.4241 6.41013C12.4123 6.33219 12.4401 6.27814 12.5 6.22466C13.6325 5.21084 14.9425 4.55999 16.4403 4.29431C16.7001 4.24823 16.9631 4.21978 17.2352 4.18166C17.2339 4.22092 17.2347 4.24595 17.232 4.27041C17.1723 4.79666 17.048 5.30642 16.8569 5.80025C16.8362 5.85372 16.8062 5.87307 16.7524 5.88217C15.2586 6.13534 13.9502 6.77765 12.8085 7.76758C12.7849 7.78806 12.7642 7.81139 12.725 7.85121ZM12.6873 4.62428C13.3055 2.89135 14.8506 1.70116 16.6826 1.54016C16.7714 1.53219 16.8608 1.53162 16.9498 1.52594C17 1.52252 17.0247 1.53845 17.0388 1.59193C17.1782 2.11989 17.2575 2.65638 17.2759 3.20198C17.2794 3.30495 17.2796 3.4085 17.2816 3.52342C16.4052 3.59055 15.5648 3.77204 14.7532 4.0821C13.9412 4.39273 13.1941 4.81828 12.5088 5.35421C12.4997 5.34966 12.4907 5.34454 12.4816 5.33942C12.5495 5.10104 12.604 4.85754 12.6873 4.62428ZM17.4743 6.02725C17.7816 5.2501 17.9301 4.44109 17.9453 3.60762C17.9572 2.95734 17.8874 2.31503 17.7396 1.68182C17.7337 1.65621 17.7285 1.63119 17.724 1.60558C17.7231 1.60103 17.7265 1.5942 17.7321 1.57315C17.9104 1.61127 18.0911 1.64313 18.2682 1.68922C18.6091 1.7774 18.9349 1.90597 19.2468 2.07096C19.2969 2.0977 19.3237 2.13013 19.3358 2.18588C19.5517 3.17752 19.5663 4.17142 19.3862 5.17045C19.2567 5.88786 19.0384 6.57683 18.7351 7.23905C18.7244 7.26238 18.7129 7.28513 18.6971 7.31813C18.3794 7.08772 18.0913 6.84023 17.8293 6.56431C17.7165 6.44483 17.6139 6.31683 17.5027 6.19565C17.4536 6.14274 17.447 6.09609 17.4743 6.02725ZM18.8019 0.250977C15.5306 -0.708225 12.1011 1.16638 11.142 4.43768C10.1829 7.70898 12.0574 11.1379 15.3288 12.0971C18.6002 13.0563 22.0296 11.1823 22.9887 7.91038C23.9478 4.63908 22.0733 1.21018 18.8019 0.250977Z" fill="#F8A41B"/>
</svg>
