<svg width="50" height="50" viewBox="0 0 50 50" fill="none" xmlns="http://www.w3.org/2000/svg">
<path d="M25 50C21.5417 50 18.2917 49.3438 15.25 48.0312C12.2083 46.7188 9.5625 44.9375 7.3125 42.6875C5.0625 40.4375 3.28125 37.7917 1.96875 34.75C0.65625 31.7083 0 28.4583 0 25C0 21.5417 0.65625 18.2917 1.96875 15.25C3.28125 12.2083 5.0625 9.5625 7.3125 7.3125C9.5625 5.0625 12.2083 3.28125 15.25 1.96875C18.2917 0.65625 21.5417 0 25 0C28.4583 0 31.7083 0.65625 34.75 1.96875C37.7917 3.28125 40.4375 5.0625 42.6875 7.3125C44.9375 9.5625 46.7188 12.2083 48.0312 15.25C49.3438 18.2917 50 21.5417 50 25C50 28.4583 49.3438 31.7083 48.0312 34.75C46.7188 37.7917 44.9375 40.4375 42.6875 42.6875C40.4375 44.9375 37.7917 46.7188 34.75 48.0312C31.7083 49.3438 28.4583 50 25 50ZM25 45C30.5833 45 35.3125 43.0625 39.1875 39.1875C43.0625 35.3125 45 30.5833 45 25C45 19.4167 43.0625 14.6875 39.1875 10.8125C35.3125 6.9375 30.5833 5 25 5C19.4167 5 14.6875 6.9375 10.8125 10.8125C6.9375 14.6875 5 19.4167 5 25C5 30.5833 6.9375 35.3125 10.8125 39.1875C14.6875 43.0625 19.4167 45 25 45ZM25 40C20.8333 40 17.2917 38.5417 14.375 35.625C11.4583 32.7083 10 29.1667 10 25C10 20.8333 11.4583 17.2917 14.375 14.375C17.2917 11.4583 20.8333 10 25 10C29.1667 10 32.7083 11.4583 35.625 14.375C38.5417 17.2917 40 20.8333 40 25C40 29.1667 38.5417 32.7083 35.625 35.625C32.7083 38.5417 29.1667 40 25 40ZM25 35C27.75 35 30.1042 34.0208 32.0625 32.0625C34.0208 30.1042 35 27.75 35 25C35 22.25 34.0208 19.8958 32.0625 17.9375C30.1042 15.9792 27.75 15 25 15C22.25 15 19.8958 15.9792 17.9375 17.9375C15.9792 19.8958 15 22.25 15 25C15 27.75 15.9792 30.1042 17.9375 32.0625C19.8958 34.0208 22.25 35 25 35ZM25 30C23.625 30 22.4479 29.5104 21.4688 28.5312C20.4896 27.5521 20 26.375 20 25C20 23.625 20.4896 22.4479 21.4688 21.4688C22.4479 20.4896 23.625 20 25 20C26.375 20 27.5521 20.4896 28.5312 21.4688C29.5104 22.4479 30 23.625 30 25C30 26.375 29.5104 27.5521 28.5312 28.5312C27.5521 29.5104 26.375 30 25 30Z" fill="#F8A41B"/>
</svg>
