<svg width="140" height="140" viewBox="0 0 140 140" fill="none" xmlns="http://www.w3.org/2000/svg">
<path fill-rule="evenodd" clip-rule="evenodd" d="M111.007 3.76701e-05L111.906 1.7444L113.917 2.02411L112.463 3.36899L112.806 5.28656L111.007 4.38109L109.207 5.28656L109.551 3.36899L108.096 2.02411L110.108 1.7444L111.007 3.76701e-05Z" fill="#FBC617"/>
<path fill-rule="evenodd" clip-rule="evenodd" d="M100.286 3.76701e-05L101.185 1.7444L103.197 2.02411L101.742 3.36899L102.086 5.28656L100.286 4.38109L98.4871 5.28656L98.8305 3.36899L97.376 2.02411L99.3874 1.7444L100.286 3.76701e-05Z" fill="#FBC617"/>
<path fill-rule="evenodd" clip-rule="evenodd" d="M89.5662 3.76701e-05L90.4657 1.7444L92.4773 2.02411L91.0217 3.36899L91.3652 5.28656L89.5662 4.38109L87.7674 5.28656L88.1109 3.36899L86.6553 2.02411L88.6669 1.7444L89.5662 3.76701e-05Z" fill="#FBC617"/>
<path fill-rule="evenodd" clip-rule="evenodd" d="M78.8454 6.81877e-05L79.7448 1.74443L81.7564 2.02414L80.3007 3.36902L80.6444 5.28659L78.8454 4.38112L77.0464 5.28659L77.3899 3.36902L75.9346 2.02414L77.9457 1.74443L78.8454 6.81877e-05Z" fill="#FBC617"/>
<path fill-rule="evenodd" clip-rule="evenodd" d="M68.1257 3.76701e-05L69.0253 1.7444L71.0366 2.02411L69.5813 3.36899L69.9247 5.28656L68.1257 4.38109L66.3267 5.28656L66.6703 3.36899L65.2148 2.02411L67.2263 1.7444L68.1257 3.76701e-05Z" fill="#FBC617"/>
<path fill-rule="evenodd" clip-rule="evenodd" d="M57.4055 6.81877e-05L58.305 1.74443L60.3164 2.02414L58.8609 3.36902L59.2046 5.28659L57.4055 4.38112L55.6065 5.28659L55.95 3.36902L54.4946 2.02414L56.506 1.74443L57.4055 6.81877e-05Z" fill="#FBC617"/>
<path fill-rule="evenodd" clip-rule="evenodd" d="M46.6828 3.76701e-05L47.5824 1.7444L49.5938 2.02411L48.1384 3.36899L48.4819 5.28656L46.6828 4.38109L44.8838 5.28656L45.2275 3.36899L43.772 2.02411L45.7834 1.7444L46.6828 3.76701e-05Z" fill="#FBC617"/>
<path fill-rule="evenodd" clip-rule="evenodd" d="M35.9629 3.76701e-05L36.8622 1.7444L38.8737 2.02411L37.4181 3.36899L37.7619 5.28656L35.9629 4.38109L34.1637 5.28656L34.5072 3.36899L33.0518 2.02411L35.0632 1.7444L35.9629 3.76701e-05Z" fill="#FBC617"/>
<path d="M104.906 67.2702C104.838 69.1529 104.807 70.9967 104.834 72.8664C104.85 73.9181 104.322 77.8133 103.294 81.8903C103.518 81.9293 103.733 81.9683 103.937 82.0202C104.337 82.0072 104.786 82.0071 105.167 82.0071C105.476 82.0071 105.717 82.0072 105.932 82.0202H105.906C105.968 82.0202 106.032 82.0071 106.096 82.0071C106.228 82.0071 106.361 82.0071 106.492 82.0071C108.804 82.0071 110.588 82.7733 111.797 84.2924C111.801 84.3054 111.807 84.3053 111.811 84.3053C112.037 84.591 112.332 84.9676 113.886 87.863C113.924 87.876 113.963 87.8889 114.002 87.9149C114.657 88.1746 115.181 88.3953 115.601 88.5901C115.856 88.7069 116.246 88.9017 116.678 89.1744C117.035 86.2659 117.054 83.3316 116.886 80.8516C116.573 76.2552 115.198 70.5162 112.841 66.4522C111.654 64.4137 106.486 54.1173 103.466 54.6756C103.519 58.9344 105.064 62.9075 104.906 67.2702Z" fill="#C81F26"/>
<path d="M78.8669 58.6762C80.0607 64.394 79.8903 70.5425 78.4566 76.195C77.8053 78.7798 76.8622 81.2861 75.5548 83.6228C76.6072 85.1893 77.8103 86.6645 79.1443 88.0221C79.4514 87.9046 79.7297 87.8263 80.0054 87.761C80.4173 87.6697 80.8481 87.6305 81.2875 87.6305C81.7465 87.6305 82.3868 87.6697 83.6515 87.9439C83.7404 87.9308 83.8324 87.9308 83.9085 87.9177C84.4421 87.8655 85.1067 87.7872 85.7883 87.7872C86.1502 87.7872 86.4855 87.8133 86.8124 87.8524C86.8177 87.8524 86.8231 87.8524 86.8284 87.8524C86.8292 87.8524 86.8303 87.8524 86.8313 87.8524C87.027 87.8524 87.3628 87.8133 87.6875 87.7742C87.8253 87.7481 87.9594 87.735 88.0896 87.7219C88.1728 87.7088 88.3253 87.6697 88.4411 87.6436C89.116 87.487 90.0404 87.278 91.0662 87.278C91.8522 87.278 92.6022 87.4086 93.2951 87.6566C93.4093 87.6436 93.5243 87.6305 93.6394 87.6175C93.8227 87.3956 94.0348 87.1606 94.2812 86.9386C95.1022 85.816 96.1655 84.8891 96.8812 84.3931C97.3519 84.0667 97.8281 83.7795 98.2496 83.5445C98.9297 82.8527 99.785 82.3435 100.751 82.0563C100.769 82.0563 100.788 82.0564 100.807 82.0433C100.833 82.0433 100.861 82.0303 100.887 82.0303C102.738 74.7069 102.816 66.9004 102.042 59.4465C101.333 52.6322 98.9913 50.0344 92.6334 46.9797C86.3931 43.9902 79.1384 42.6848 72.1821 43.0634C72.7941 45.8178 75.1788 48.3242 76.304 50.922C77.3853 53.4284 78.3102 56.0132 78.8669 58.6762Z" fill="#C81F26"/>
<path d="M76.982 65.2806C76.8886 63.9084 77.0587 61.8242 75.9283 60.7498C74.3862 60.6462 72.8403 60.5557 71.293 60.5298C68.4664 60.478 65.769 60.931 63.0296 61.5524C56.8509 62.9634 50.4599 65.2418 44.708 68.4392C44.795 68.5945 44.8816 68.737 44.9669 68.8794L45.6415 69.9926C46.7904 71.9214 47.5805 73.902 48.0066 75.8955C48.0967 75.9214 48.1869 75.9474 48.2762 75.9733C50.4562 76.75 51.8278 77.3842 52.7792 78.4845C52.8129 78.5104 52.8522 78.5494 52.8962 78.5882C53.9199 78.7694 54.5696 78.8859 55.0043 78.9765C55.0073 78.9765 55.0105 78.9765 55.0138 78.9765C55.3244 78.9765 55.7286 78.9765 56.1569 78.9635C56.6438 78.9506 57.1472 78.9506 57.6074 78.9506C58.4624 78.9506 59.0156 78.9764 59.5173 79.0671C60.2175 79.1836 61.1572 79.4555 63.772 80.2451C64.297 80.4005 65.0006 80.6205 65.2636 80.6852C65.3248 80.6981 65.3944 80.7112 65.4712 80.7241C66.2476 80.8665 67.5619 81.0994 69.0215 81.6561C69.9653 81.8244 70.86 82.1998 71.6704 82.7564C72.2745 82.6399 72.8821 82.5105 73.4933 82.3681C76.7618 77.5913 77.3579 70.834 76.982 65.2806Z" fill="#C81F26"/>
<path d="M40.9143 60.3438C40.8616 60.6703 40.7935 61.0882 40.7754 61.3625C41.074 62.2506 42.2614 64.3272 43.5373 66.4821C46.259 65.0325 49.0662 63.7264 51.9581 62.6032C59.3987 59.743 67.3421 58.202 75.3652 58.0714C77.2146 56.2038 71.2038 46.8917 69.7752 44.9849C67.2983 41.6937 58.7181 45.5857 55.7185 47.0746C50.5162 49.6474 45.293 53.3566 41.1475 57.8755C41.1649 58.8028 41.0289 59.6385 40.9143 60.3438Z" fill="#C81F26"/>
<path d="M139.925 113.244L139.725 112.698C139.478 112.387 139.158 112.049 138.854 111.815C138.23 111.335 137.756 111.283 137.439 111.179C137.12 111.075 136.545 110.803 135.979 110.426C135.414 110.037 134.038 109.829 133.492 109.868C132.927 109.491 131.196 109.478 130.89 109.401C130.589 109.323 129.625 108.959 129.154 108.816C128.686 108.673 124.458 107.894 123.087 107.492C121.718 107.076 118.059 105.402 117.127 105.259C116.195 105.116 113.746 105.103 113.138 105.038C112.528 104.973 109.794 103.805 108.321 103.441C107.792 103.311 106.89 103.065 105.914 102.766C105.991 102.597 106.043 102.415 106.081 102.247C106.186 101.766 106.389 101.935 106.7 101.766C107.011 101.584 107.143 101.247 107.045 101.078C106.945 100.922 106.042 100.805 106.079 100.637C106.119 100.468 107.377 100.299 107.831 100.169C108.287 100.052 108.124 99.8446 108.105 99.6758C108.086 99.5071 108.124 99.1306 108.124 99.1306C108.124 99.1306 108.807 99.1176 109.13 98.845C109.454 98.5723 109.401 98.2218 109.216 97.5077C109.031 96.7936 108.901 96.2872 109.073 96.1963C109.247 96.0924 109.269 95.8977 109.28 95.5211C111.86 95.6769 113.968 93.7684 113.906 93.4698C113.839 93.1712 110.103 91.8208 110.103 91.8208C110.103 91.8208 107.959 87.7571 107.618 87.3286C107.278 86.9002 106.351 87.0429 105.678 87.017C105.003 86.991 103.031 87.056 103.031 87.056C103.031 87.056 102.601 86.7573 102.274 86.8482C101.952 86.9521 101.862 87.3675 101.862 87.3675C101.862 87.3675 100.851 87.8349 99.9608 88.4451C99.0707 89.0684 98.3616 90.0552 98.3126 90.2759C98.2609 90.4966 98.0281 90.4577 97.8621 90.6005C97.696 90.7563 97.6661 91.0159 97.5831 91.3275C97.496 91.6391 96.8046 92.1195 96.8713 92.3273C96.9407 92.509 97.2646 92.4182 97.4347 92.4442C97.5613 92.4701 97.5817 92.7168 97.594 93.0024C97.0414 92.9375 96.4902 92.8725 96.1608 92.7557C95.3973 92.483 94.0676 92.574 93.2891 92.7038C92.5141 92.8466 92.118 92.574 91.4806 92.3532C90.8432 92.1195 89.5002 92.6129 88.7478 92.6908C87.9925 92.7687 87.0675 92.9245 86.1713 92.8206C85.2749 92.7037 83.6123 93.0803 83.0148 92.9504C82.4202 92.8076 81.4207 92.5869 81.1856 92.6518C80.9473 92.7038 80.0676 93.2881 80.0676 93.2881L76.508 93.3399C76.508 93.3399 74.1187 91.1198 73.6951 90.3408C73.2723 89.5748 72.33 88.8348 72.0546 88.8088C71.7767 88.7698 71.0674 88.1855 70.8797 88.1206C70.6868 88.0427 70.5089 88.8737 70.5089 88.8737L69.737 88.2635C69.737 88.2635 68.8152 86.3548 67.7157 86.5885C66.1952 85.8485 64.5937 85.6927 63.9985 85.5499C63.4025 85.407 59.3527 84.1217 58.6083 83.9918C57.8616 83.875 54.5322 84.0698 54.1529 83.94C53.7678 83.8102 50.5096 83.2778 50.5096 83.2778C50.5096 83.2778 48.9255 81.9664 48.7411 81.6937C48.5569 81.4211 46.4618 80.6811 46.4618 80.6811C46.4618 80.6811 45.2101 82.8493 44.8319 84.6281C44.0943 84.3944 43.4067 84.1996 43.0834 84.1217C42.5377 83.9659 42.4097 83.5764 42.616 82.8493C42.8226 82.1093 44.2745 77.8118 41.0849 72.4885C37.8941 67.1653 35.6215 63.491 35.5311 61.7901C35.4364 60.0763 36.2116 58.2976 35.7625 57.181C35.3129 56.0774 32.0084 56.1554 31.2698 55.9606C30.532 55.7659 29.5133 54.7271 27.888 54.4804C26.2661 54.2467 25.0402 54.5974 25.0402 54.5974C25.0402 54.5974 24.5638 54.4286 24.3028 54.4026C24.0408 54.3896 23.7275 54.5714 23.7275 54.5714C23.7275 54.5714 23.108 54.4805 22.938 54.5324C22.2445 54.2208 20.9566 54.2338 20.7152 54.6752C20.4713 55.1296 20.9832 55.61 21.502 55.7268C22.0172 55.8307 22.5709 56.5448 23.0941 56.5967C23.619 56.6357 24.3549 57.4926 24.8661 57.6743C25.3754 57.8431 26.6209 58.8948 27.115 59.2583C27.605 59.6219 28.2681 60.5567 28.7379 61.1409C29.2053 61.7122 29.5479 62.5951 29.7041 63.0106C29.8593 63.4391 31.6092 65.7112 31.9823 66.9316C32.3523 68.1651 33.6815 73.3194 33.9231 75.1631C34.1678 77.0067 34.9686 81.2005 35.039 82.1223C35.1125 83.0441 34.877 87.1079 34.8273 88.1725C34.8 88.7698 35.6573 90.7693 37.4564 91.2107C38.2946 91.4185 40.0351 91.7429 41.6565 92.0156C41.5345 92.7816 41.3368 93.8983 41.1986 94.2618C41.1096 94.4955 41.1808 94.7681 41.294 95.0667C40.1358 95.0407 39.0338 95.0667 38.6521 95.1316C38.0491 95.2355 33.7078 92.9375 31.5605 92.2234C29.409 91.5223 26.9776 90.9381 24.006 91.016C21.0366 91.0939 16.571 90.185 15.3305 89.7695C14.5222 89.4968 12.9253 88.4062 11.7329 87.6661C11.1519 87.2117 10.6026 86.8482 10.0489 86.7573C8.81899 86.5625 7.18905 89.3021 6.63593 89.8084C6.08323 90.3148 4.62695 90.6134 3.57516 91.8208C2.5235 93.0153 2.21973 94.2099 2.21973 94.2099C2.21973 94.2099 1.82055 94.5085 1.66253 94.7163C1.50983 94.911 1.51704 95.2745 1.51704 95.2745C1.51704 95.2745 1.12303 95.7289 1.08057 95.8977C0.439938 96.3002 -0.213348 97.3648 0.0666112 97.7932C0.346979 98.2217 1.04559 98.0529 1.41156 97.6894C1.77373 97.3129 2.69772 97.235 3.00993 96.8195C3.32283 96.417 4.46839 96.2613 4.88772 95.9237C5.13637 95.7289 5.80245 95.4822 6.42212 95.2615C7.76108 94.9758 9.54101 94.6513 10.1494 94.5215C10.8797 94.4696 11.7531 94.6254 12.182 94.7163C12.6433 94.8071 15.5795 94.5344 16.8782 94.859C17.4841 95.0148 18.9723 95.4433 20.5668 95.9237C24.2372 97.3519 26.4056 98.3386 27.49 98.6113C28.6847 98.8969 30.9008 99.2864 31.6258 99.7278C32.348 100.169 35.8582 101.974 36.7817 102.571C37.3253 102.922 39.6991 103 41.5492 103C41.2623 103.571 41.0005 104.298 40.7864 105.194C40.7864 105.194 42.403 104.947 42.7669 104.934C43.1328 104.921 47.5227 104.402 48.2274 104.441C48.9345 104.493 51.3255 104.09 52.0453 103.727C52.7654 103.363 56.6743 103.155 57.7669 103.13C58.8622 103.104 61.57 102.26 61.57 102.26L60.4243 103.168C60.4243 103.168 61.149 103.909 61.6164 103.999C62.0837 104.103 64.3525 103.662 64.738 103.584C65.1265 103.519 68.7172 103.194 69.1922 103.091C69.6674 102.987 69.9785 103.298 70.8829 103.753C71.7905 104.22 80.3349 106.947 81.1357 107.31C81.9387 107.661 88.5147 108.388 89.1904 108.699C89.8662 108.998 93.3041 108.141 93.9288 108.024C94.3806 107.933 95.1537 107.492 95.7389 106.986C97.2292 107.674 99.6518 108.764 100.734 109.037C102.208 109.401 106.622 110.011 107.66 110.27C108.698 110.53 110.819 111.413 112.098 111.815C113.371 112.218 118.017 112.672 120.328 112.854C122.639 113.023 127.21 113.062 127.77 113.049C128.326 113.036 128.971 113.049 129.134 113.36C129.297 113.659 129.971 114.243 130.451 114.516C130.937 114.776 131.742 115.217 132.177 115.321C132.61 115.425 133.708 114.906 133.708 114.906C133.708 114.906 134.43 115.087 134.785 115.022C134.989 114.996 135.344 114.905 135.614 114.828C135.825 114.88 136.081 114.931 136.198 114.931C136.411 114.944 137.365 115.009 137.71 115.048C138.053 115.087 138.887 115.152 139.112 114.996C139.205 114.931 139.411 114.75 139.618 114.542C139.973 114.204 140.093 113.698 139.925 113.244Z" fill="#2556AC"/>
<path d="M39.1192 125.523H39.8814C40.165 125.523 40.3911 125.46 40.5596 125.333C40.7281 125.22 40.8498 125.018 40.9248 124.74C40.9994 124.45 41.037 124.071 41.037 123.592V122.507C41.037 121.85 40.9714 121.371 40.8403 121.068C40.7095 120.778 40.4378 120.627 40.0261 120.627H39.1192V125.523ZM39.1192 119.087H39.9137C40.1007 119.087 40.2534 119.062 40.3713 119.011C40.4886 118.961 40.5797 118.872 40.6439 118.746C40.708 118.62 40.7522 118.443 40.7764 118.216C40.8004 118.002 40.8123 117.711 40.8123 117.371V116.55C40.8123 116.197 40.7776 115.92 40.708 115.73C40.6386 115.541 40.5329 115.415 40.3911 115.339C40.2492 115.276 40.0662 115.238 39.8413 115.238H39.1192V119.087ZM36.9688 127.113V113.636H40.0261C40.7373 113.636 41.3045 113.737 41.7273 113.951C42.1496 114.153 42.4561 114.481 42.6461 114.923C42.8356 115.377 42.9307 115.957 42.9307 116.689V117.093C42.9307 117.8 42.8356 118.368 42.6461 118.822C42.4561 119.276 42.139 119.592 41.6952 119.768C42.0643 119.882 42.3598 120.096 42.5818 120.399C42.8036 120.702 42.9631 121.068 43.0592 121.51C43.1556 121.951 43.2038 122.418 43.2038 122.948V123.289C43.1983 124.185 43.0885 124.917 42.8748 125.485C42.6607 126.053 42.3264 126.456 41.8714 126.721C41.4168 126.974 40.823 127.113 40.09 127.113H36.9688Z" fill="#C81F26"/>
<path d="M44.208 127.113V113.636H48.9423V115.402H46.3585V119.327H48.8141V121.055H46.3585V125.346H49.0387V127.113H44.208Z" fill="#C81F26"/>
<path d="M51.3903 123.062H53.236L52.2892 116.298H52.2569L51.3903 123.062ZM48.8066 127.113L50.8205 113.636H53.6612L55.804 127.113H53.7978L53.4606 124.702H51.1817L50.8768 127.113H48.8066Z" fill="#C81F26"/>
<path d="M59.319 127.266C58.6342 127.266 58.0646 127.114 57.6098 126.812C57.1551 126.509 56.8138 126.067 56.5868 125.487C56.3591 124.919 56.2456 124.212 56.2456 123.392V117.523C56.2456 116.905 56.2991 116.35 56.4059 115.845C56.513 115.353 56.6872 114.936 56.9278 114.583C57.1685 114.23 57.4895 113.952 57.8905 113.763C58.2919 113.573 58.7868 113.485 59.3751 113.485C59.91 113.485 60.366 113.573 60.7435 113.737C61.1206 113.902 61.4282 114.141 61.6663 114.444C61.9043 114.76 62.078 115.138 62.1878 115.58C62.2973 116.022 62.3524 116.514 62.3524 117.069V118.924H60.2738V117.195C60.2738 116.539 60.2151 116.047 60.0972 115.731C59.9796 115.416 59.7444 115.264 59.3912 115.264C59.0005 115.264 58.7399 115.428 58.6088 115.769C58.4777 116.11 58.4121 116.577 58.4121 117.195V123.48C58.4121 123.947 58.4404 124.338 58.4966 124.628C58.5525 124.931 58.6477 125.146 58.7813 125.297C58.9152 125.436 59.1024 125.499 59.343 125.499C59.7068 125.499 59.953 125.335 60.0815 125.007C60.2098 124.691 60.2738 124.174 60.2738 123.455V121.524H62.3842V123.442C62.3842 124.288 62.2801 124.994 62.0715 125.575C61.8629 126.143 61.5324 126.559 61.0805 126.837C60.6284 127.127 60.0414 127.266 59.319 127.266Z" fill="#C81F26"/>
<path d="M63.2129 127.113V113.636H65.3635V119.087H67.2895V113.636H69.4398V127.113H67.2895V120.854H65.3635V127.113H63.2129Z" fill="#C81F26"/>
<path d="M75.2825 127.113L73.0918 113.636H75.138L76.0608 119.718L76.6306 124.008H76.6868L77.1761 119.718L77.9465 113.636H79.9526L77.9383 127.113H75.2825Z" fill="#C81F26"/>
<path d="M83.6207 125.49C83.8882 125.49 84.0887 125.414 84.2226 125.25C84.3562 125.099 84.4457 124.871 84.4913 124.556C84.5367 124.24 84.5597 123.849 84.5597 123.37V117.085C84.5597 116.504 84.502 116.05 84.3871 115.735C84.2718 115.407 84.0247 115.255 83.6446 115.255C83.2542 115.255 82.9894 115.407 82.8504 115.709C82.7112 116.025 82.6416 116.479 82.6416 117.085V123.37C82.6416 123.849 82.6644 124.253 82.71 124.569C82.7553 124.884 82.8489 125.111 82.9907 125.263C83.1324 125.414 83.3425 125.49 83.6207 125.49ZM83.6207 127.257C82.8879 127.257 82.2899 127.118 81.8274 126.815C81.3645 126.525 81.0233 126.083 80.8041 125.502C80.5848 124.922 80.4751 124.203 80.4751 123.344V117.186C80.4751 116.404 80.5821 115.735 80.7962 115.192C81.0099 114.637 81.3498 114.22 81.8155 113.917C82.2807 113.627 82.8906 113.476 83.6446 113.476C84.2118 113.476 84.6907 113.564 85.0813 113.728C85.4716 113.892 85.7873 114.144 86.028 114.46C86.2687 114.775 86.4438 115.167 86.5536 115.621C86.6634 116.075 86.7181 116.593 86.7181 117.186V123.344C86.7181 124.203 86.6126 124.922 86.4013 125.502C86.1898 126.083 85.8569 126.525 85.4022 126.815C84.9474 127.118 84.3536 127.257 83.6207 127.257Z" fill="#C81F26"/>
<path d="M87.6812 127.113V113.636H89.831V125.359H92.552V127.113H87.6812Z" fill="#C81F26"/>
<path d="M93.0576 127.113V113.636H95.2072V125.359H97.9282V127.113H93.0576Z" fill="#C81F26"/>
<path d="M98.4355 127.113V113.636H103.17V115.402H100.585V119.327H103.042V121.055H100.585V125.346H103.265V127.113H98.4355Z" fill="#C81F26"/>
<path d="M104.983 127.113V121.724L102.617 113.636H104.671L106.067 118.671H106.1L107.343 113.636H109.389L107.134 121.724V127.113H104.983Z" fill="#C81F26"/>
<path d="M56.5566 139.925L54.004 140H52.9057L50.7094 139.925C48.9481 139.75 48.0676 138.849 48.0676 137.209L48.0083 135.407C48.0083 134.693 48.0156 134.155 48.0306 133.804C48.0453 133.454 48.1168 132.978 48.2459 132.353C48.3742 131.727 48.6857 131.251 49.1809 130.926C49.6754 130.613 50.3632 130.45 51.2435 130.45C51.6391 130.4 52.0129 130.375 52.364 130.362C52.715 130.35 53.1284 130.35 53.6035 130.35H53.9596H55.3845C55.9579 130.35 56.4231 130.362 56.7794 130.387C57.1357 130.412 57.6032 130.475 58.1818 130.588C58.7605 130.713 59.1637 131.013 59.3915 131.514C59.619 132.015 59.7328 132.678 59.7328 133.504H58.5455V133.416C58.5455 132.978 58.5181 132.628 58.464 132.34C58.4093 132.065 58.2807 131.864 58.0779 131.739C57.8749 131.601 57.5016 131.514 56.9574 131.439C56.4132 131.376 55.6612 131.339 54.7015 131.339C54.3455 131.339 53.8061 131.351 53.084 131.389C52.3617 131.426 51.8174 131.439 51.4515 131.439C50.6003 131.501 50.0565 131.652 49.8189 131.877C49.5816 132.102 49.4331 132.478 49.3735 133.028C49.3143 133.579 49.2795 134.08 49.2697 134.543C49.2597 134.993 49.2549 135.419 49.2549 135.82C49.2549 137.034 49.3811 137.86 49.6335 138.31C49.8857 138.773 50.5558 138.999 51.6444 138.999H53.9596H56.171C57.081 138.999 57.7144 138.899 58.0707 138.686C58.4266 138.486 58.6048 137.997 58.6048 137.209V136.833H59.8515C59.8515 138.035 59.6535 138.849 59.2577 139.274C58.862 139.7 57.9615 139.925 56.5566 139.925Z" fill="#2556AC"/>
<path d="M71.2498 139.897H62.2266V130.447H63.4286V138.945H71.2498V139.897Z" fill="#2556AC"/>
<path d="M84.4754 136.958C84.4754 138.285 84.1958 139.124 83.6369 139.449C83.0778 139.787 82.0216 139.95 80.4682 139.95L78.4796 139.987L75.6449 139.95C74.6656 139.95 73.9506 139.749 73.5003 139.336C73.0499 138.923 72.8252 138.248 72.8252 137.309V130.463H74.0272V137.159C74.0272 137.91 74.2053 138.385 74.5617 138.598C74.9178 138.811 75.5263 138.911 76.387 138.911L78.5092 138.986L80.8098 138.911C81.7396 138.911 82.3828 138.811 82.739 138.585C83.0951 138.373 83.2733 137.859 83.2733 137.071V136.858V130.463H84.4754V136.958Z" fill="#2556AC"/>
<path d="M97.3704 137.318C97.3704 136.905 97.3363 136.567 97.2667 136.304C97.1972 136.042 97.049 135.854 96.822 135.729C96.5937 135.604 96.3536 135.528 96.1017 135.491C95.8498 135.466 95.5743 135.441 95.2778 135.441H95.1151H88.3465V138.945H95.1453C95.9062 138.945 96.4677 138.833 96.8285 138.607C97.1907 138.395 97.3704 137.957 97.3704 137.318ZM97.0293 132.913C97.0293 132.312 96.8902 131.911 96.6134 131.711C96.3365 131.511 95.8721 131.411 95.2187 131.411H88.3465V134.49H95.0403C95.7435 134.49 96.25 134.39 96.5622 134.164C96.8731 133.952 97.0293 133.539 97.0293 132.913ZM98.2757 132.813C98.2757 133.551 98.1576 134.052 97.9201 134.315C97.6826 134.577 97.1828 134.765 96.4205 134.89C97.2615 134.89 97.8388 135.065 98.1497 135.391C98.462 135.729 98.6168 136.317 98.6168 137.143C98.6168 138.169 98.3649 138.883 97.8611 139.283C97.356 139.696 96.5294 139.897 95.3814 139.897H87.145V130.447H95.5152C96.4153 130.447 97.1014 130.635 97.5711 130.998C98.0408 131.361 98.2757 131.974 98.2757 132.813Z" fill="#2556AC"/>
<path d="M103.749 14.2683H105.601C106.415 14.2683 107.015 14.3875 107.402 14.6393C107.788 14.8779 108.042 15.3285 108.164 15.9647C108.287 16.6141 108.348 17.5418 108.348 18.7478V18.9598C108.348 20.3911 108.284 21.4912 108.155 22.2599C108.025 23.0286 107.788 23.5455 107.442 23.8371C107.096 24.1154 106.592 24.2611 105.926 24.2611H103.749V14.2683ZM103.73 49.7601V28.2901L105.479 28.3961C106.253 28.4358 106.846 28.5551 107.259 28.7671C107.673 28.9659 107.957 29.337 108.114 29.8539C108.27 30.384 108.348 31.1527 108.348 32.1732C108.348 32.9816 108.348 33.8962 108.348 34.9432C108.348 35.8841 108.351 50.33 108.356 54.0409C110.416 56.2276 112.249 58.6132 113.82 61.171H114.003C113.963 61.065 113.928 60.7205 113.902 60.1638C113.874 59.594 113.855 58.9048 113.841 58.0964C113.827 57.3012 113.817 56.4927 113.81 55.6843C113.803 54.8759 113.801 54.1734 113.801 53.577C113.801 52.9806 113.801 35.8841 113.801 35.7515C113.801 34.0949 113.742 32.6901 113.627 31.5503C113.512 30.3973 113.326 29.4696 113.067 28.7274C112.81 27.9985 112.471 27.4418 112.05 27.0708C111.631 26.6864 111.108 26.4347 110.484 26.3286C111.799 25.9443 112.671 25.1756 113.098 24.0359C113.526 22.8961 113.74 21.3189 113.74 19.3045C113.74 17.3695 113.594 15.7261 113.302 14.3743C113.01 13.0357 112.403 12.0153 111.481 11.3129C110.558 10.6104 109.162 10.2658 107.289 10.2658H98.2769V45.9962C100.193 47.1227 102.014 48.3818 103.73 49.7601Z" fill="#2556AC"/>
<path d="M87.7169 16.9984H87.7981L90.199 34.1612H85.5195L87.7169 16.9984ZM84.7001 40.6155L84.9904 38.336H90.7686L91.4073 42.6698C93.2747 43.3854 95.0816 44.2203 96.8171 45.1613L91.277 10.2659H84.075L79.665 39.7673C81.374 39.9661 83.0539 40.2444 84.7001 40.6155Z" fill="#2556AC"/>
<path d="M37.2427 56.97C38.8745 54.9025 40.6939 52.9808 42.675 51.2181V14.772H46.7031V10.2659H33.0518V14.772H37.2427V56.97Z" fill="#2556AC"/>
<path d="M74.0632 39.4358C75.5339 39.4358 76.9877 39.5154 78.4232 39.6346L81.3968 10.2658H76.3107L74.3575 27.5611L73.1164 36.3876H72.9738L71.5295 27.5611L69.1897 10.2658H64.002L67.267 39.913C69.4851 39.6082 71.754 39.4358 74.0632 39.4358Z" fill="#2556AC"/>
<path d="M53.1341 44.23V19.0045C53.1341 17.4801 53.3104 16.3136 53.663 15.5315C54.0156 14.7494 54.6869 14.365 55.6771 14.365C56.6401 14.365 57.2674 14.7627 57.5591 15.5712C57.8505 16.3798 57.9965 17.5331 57.9965 19.0177V42.1887C59.7718 41.5656 61.5983 41.0354 63.4691 40.6112V19.2564C63.4691 17.7718 63.33 16.4594 63.0522 15.3061C62.7742 14.1396 62.3301 13.1587 61.7197 12.3502C61.1094 11.5416 60.309 10.9318 59.3189 10.4944C58.3288 10.0702 57.1149 9.85812 55.6771 9.85812C53.7647 9.85812 52.2187 10.2293 51.0385 10.9849C49.8585 11.7404 48.9973 12.8141 48.4548 14.2059C47.9122 15.5978 47.6411 17.2813 47.6411 19.2564V47.3848C49.3875 46.2183 51.2215 45.1578 53.1341 44.23Z" fill="#2556AC"/>
</svg>
