<svg width="1600" height="405" viewBox="0 0 1600 405" fill="none" xmlns="http://www.w3.org/2000/svg">
<g clip-path="url(#clip0_2617_5369)">
<path d="M0 374.625L38.2222 375.165C76.4444 375.772 152.889 376.852 228.978 372.06C305.244 367.2 380.978 356.4 457.244 353.497C533.333 350.527 609.778 355.522 685.867 361.26C762.133 366.997 837.867 373.477 914.133 370.71C990.222 367.875 1066.67 355.725 1142.76 356.062C1219.02 356.4 1294.76 369.225 1371.02 373.275C1447.11 377.325 1523.56 372.6 1561.78 370.237L1600 367.875V405.675H1561.78C1523.56 405.675 1447.11 405.675 1371.02 405.675C1294.76 405.675 1219.02 405.675 1142.76 405.675C1066.67 405.675 990.222 405.675 914.133 405.675C837.867 405.675 762.133 405.675 685.867 405.675C609.778 405.675 533.333 405.675 457.244 405.675C380.978 405.675 305.244 405.675 228.978 405.675C152.889 405.675 76.4444 405.675 38.2222 405.675H0V374.625Z" fill="#FFFBF0"/>
</g>
<defs>
<clipPath id="clip0_2617_5369">
<rect width="1600" height="405" fill="white"/>
</clipPath>
</defs>
</svg>
