<svg width="50" height="50" viewBox="0 0 50 50" fill="none" xmlns="http://www.w3.org/2000/svg">
<path d="M25 50C21.5417 50 18.2917 49.3438 15.25 48.0312C12.2083 46.7188 9.5625 44.9375 7.3125 42.6875C5.0625 40.4375 3.28125 37.7917 1.96875 34.75C0.65625 31.7083 0 28.4583 0 25C0 21.5417 0.65625 18.2917 1.96875 15.25C3.28125 12.2083 5.0625 9.5625 7.3125 7.3125C9.5625 5.0625 12.2083 3.28125 15.25 1.96875C18.2917 0.65625 21.5417 0 25 0C28.4583 0 31.7083 0.65625 34.75 1.96875C37.7917 3.28125 40.4375 5.0625 42.6875 7.3125C44.9375 9.5625 46.7188 12.2083 48.0312 15.25C49.3438 18.2917 50 21.5417 50 25C50 28.4583 49.3438 31.7083 48.0312 34.75C46.7188 37.7917 44.9375 40.4375 42.6875 42.6875C40.4375 44.9375 37.7917 46.7188 34.75 48.0312C31.7083 49.3438 28.4583 50 25 50ZM25 45C30.5833 45 35.3125 43.0625 39.1875 39.1875C43.0625 35.3125 45 30.5833 45 25C45 24.7083 44.9896 24.4062 44.9688 24.0938C44.9479 23.7812 44.9375 23.5208 44.9375 23.3125C44.7292 24.5208 44.1667 25.5208 43.25 26.3125C42.3333 27.1042 41.25 27.5 40 27.5H35C33.625 27.5 32.4479 27.0104 31.4688 26.0312C30.4896 25.0521 30 23.875 30 22.5V20H20V15C20 13.625 20.4896 12.4479 21.4688 11.4688C22.4479 10.4896 23.625 10 25 10H27.5C27.5 9.04167 27.7604 8.19792 28.2812 7.46875C28.8021 6.73958 29.4375 6.14583 30.1875 5.6875C29.3542 5.47917 28.5104 5.3125 27.6562 5.1875C26.8021 5.0625 25.9167 5 25 5C19.4167 5 14.6875 6.9375 10.8125 10.8125C6.9375 14.6875 5 19.4167 5 25H17.5C20.25 25 22.6042 25.9792 24.5625 27.9375C26.5208 29.8958 27.5 32.25 27.5 35V37.5H20V44.375C20.8333 44.5833 21.6562 44.7396 22.4688 44.8438C23.2812 44.9479 24.125 45 25 45Z" fill="#F8A41B"/>
</svg>
